<?xml version="1.0" encoding="UTF-8"?>
<!DOCTYPE svg PUBLIC "-//W3C//DTD SVG 1.1//EN" "http://www.w3.org/Graphics/SVG/1.1/DTD/svg11.dtd">
<!-- Creator: CorelDRAW -->
<svg xmlns="http://www.w3.org/2000/svg" xml:space="preserve" width="153.144mm" height="41.2819mm" version="1.1" style="shape-rendering:geometricPrecision; text-rendering:geometricPrecision; image-rendering:optimizeQuality; fill-rule:evenodd; clip-rule:evenodd"
viewBox="0 0 6195.89 1670.17"
 xmlns:xlink="http://www.w3.org/1999/xlink"
 xmlns:xodm="http://www.corel.com/coreldraw/odm/2003">
 <defs>
  <style type="text/css">
   <![CDATA[
    .str0 {stroke:black;stroke-width:8.09;stroke-miterlimit:22.9256}
    .fil1 {fill:none;fill-rule:nonzero}
    .fil0 {fill:black;fill-rule:nonzero}
    .fil2 {fill:black;fill-rule:nonzero}
   ]]>
  </style>
 </defs>
 <g id="Слой_x0020_1">
  <metadata id="CorelCorpID_0Corel-Layer"/>
  <path class="fil0" d="M2476.12 1183.03c-43.1,22.65 -91.1,33.97 -143.92,33.97 -61.31,0 -110.96,-18.36 -148.83,-55.18 -37.97,-36.73 -56.91,-85.45 -56.91,-146.06 0,-61.85 21.08,-112.66 63.15,-152.34 42.07,-39.68 95.4,-59.57 159.99,-59.57 46.78,0 86.08,7.14 117.81,21.22l0 51.85c-34.7,-20.46 -75.95,-30.64 -123.55,-30.64 -48.11,0 -87.62,15.41 -118.43,46.24 -30.81,30.83 -46.17,70.79 -46.17,119.89 0,50.52 14.33,90.3 42.89,119.13 28.56,28.92 67.35,43.39 116.38,43.39 33.58,0 62.64,-6.28 87.21,-18.65l0 -112.08 -94.17 0 0 -42.34 144.53 0 0 181.17zm577.64 27.31l-227.85 0 0 -399.73 218.33 0 0 42.34 -167.97 0 0 133.02 155.38 0 0 42.06 -155.38 0 0 139.96 177.49 0 0 42.34zm505.99 6.66c-61.01,0 -109.83,-18.65 -146.47,-56.04 -36.65,-37.3 -55.07,-85.92 -55.07,-145.77 0,-64.32 18.73,-115.61 56.09,-153.86 37.36,-38.25 88.33,-57.47 152.72,-57.47 59.37,0 107.17,18.65 143.41,55.76 36.34,37.2 54.45,85.82 54.45,145.87 0,65.18 -18.63,116.75 -55.79,154.71 -37.15,37.87 -86.9,56.8 -149.34,56.8zm3.58 -370.71c-45.14,0 -81.79,15.13 -110.04,45.39 -28.15,30.35 -42.27,70.13 -42.27,119.32 0,49.29 13.72,88.87 41.25,118.94 27.43,29.97 63.36,45.01 107.48,45.01 47.19,0 84.34,-14.27 111.57,-42.91 27.23,-28.64 40.74,-68.7 40.74,-120.18 0,-52.81 -13.1,-93.53 -39.51,-122.36 -26.41,-28.83 -62.84,-43.2 -109.21,-43.2zm535.98 364.05l0 -399.73 118.73 0c151.49,0 227.34,64.89 227.34,194.87 0,61.66 -21.09,111.23 -63.15,148.72 -42.07,37.4 -98.37,56.14 -168.99,56.14l-113.93 0zm50.36 -357.38l0 315.04 64.18 0c56.4,0 100.21,-14.08 131.63,-42.15 31.42,-28.07 47.08,-67.84 47.08,-119.32 0,-102.38 -58.55,-153.57 -175.75,-153.57l-67.15 0zm858 357.38l-227.85 0 0 -399.73 218.33 0 0 42.34 -167.97 0 0 133.02 155.38 0 0 42.06 -155.38 0 0 139.96 177.49 0 0 42.34zm312.53 -16.18l0 -55.19c6.85,5.62 15.04,10.56 24.46,15.03 9.52,4.47 19.56,8.28 29.99,11.32 10.55,3.04 21.09,5.42 31.63,7.14 10.64,1.61 20.47,2.47 29.37,2.47 31.02,0 54.15,-5.33 69.5,-16.08 15.25,-10.66 22.93,-26.07 22.93,-46.05 0,-10.85 -2.56,-20.17 -7.68,-28.17 -5.12,-7.99 -12.18,-15.32 -21.09,-21.88 -9.01,-6.66 -19.65,-12.94 -31.94,-19.03 -12.38,-6 -25.59,-12.37 -39.82,-19.03 -14.94,-7.04 -28.96,-14.27 -41.96,-21.5 -13,-7.23 -24.26,-15.22 -33.88,-23.98 -9.62,-8.76 -17.09,-18.65 -22.62,-29.69 -5.53,-11.04 -8.29,-23.98 -8.29,-38.82 0,-18.27 4.3,-34.06 12.9,-47.57 8.6,-13.51 19.96,-24.55 33.88,-33.3 14.02,-8.76 29.99,-15.22 47.9,-19.51 17.81,-4.28 36.13,-6.47 54.66,-6.47 42.38,0 73.29,4.76 92.74,14.27l0 52.71c-25.38,-16.37 -58.04,-24.55 -97.75,-24.55 -11.05,0 -22.01,1.05 -33.06,3.14 -10.95,2.19 -20.78,5.71 -29.38,10.47 -8.59,4.85 -15.55,11.13 -20.98,18.75 -5.42,7.61 -8.09,16.84 -8.09,27.88 0,10.18 2.05,19.03 6.14,26.46 4.1,7.42 10.14,14.18 18.12,20.36 7.99,6.09 17.81,12.08 29.27,17.79 11.47,5.81 24.77,12.08 39.72,18.94 15.45,7.14 29.99,14.56 43.81,22.36 13.82,7.8 25.9,16.46 36.24,25.88 10.44,9.51 18.63,19.98 24.77,31.49 6.14,11.51 9.11,24.74 9.11,39.58 0,19.69 -4.09,36.44 -12.38,50.05 -8.29,13.7 -19.55,24.83 -33.58,33.3 -14.13,8.56 -30.4,14.75 -48.72,18.55 -18.42,3.81 -37.77,5.71 -58.24,5.71 -6.76,0 -15.15,-0.47 -25.18,-1.52 -9.92,-1.05 -20.16,-2.47 -30.6,-4.47 -10.34,-1.91 -20.16,-4.38 -29.48,-7.23 -9.31,-2.85 -16.79,-6.09 -22.41,-9.61zm875.7 -383.55l-141.77 251.96 0 147.77 -50.46 0 0 -146.63 -138.18 -253.1 57.22 0 96.32 180.6c1.13,2.28 4.71,10.47 10.44,24.55l0.92 0c2.05,-6.28 5.83,-14.46 11.36,-24.55l100.82 -180.6 53.33 0z"/>
  <g id="_2057634614768">
   <path class="fil1 str0" d="M128.81 419.3l1145.19 994.51 -1145.19 0 0 -994.51zm572.6 497.25m0 497.26m-572.6 -497.26"/>
   <path class="fil1 str0" d="M1572.42 482.62l-1436.77 1174.45 607.7 -1508.44 829.07 334zm-718.38 587.22m-414.53 -167m718.38 -587.22"/>
   <path class="fil1 str0" d="M1289.04 1242.5l-1268.87 -1228.59 1512.62 707.35 -243.75 521.24zm-634.43 -614.3m121.88 -260.62m634.43 614.3"/>
  </g>
  <path class="fil2" d="M4276.09 600.01l-43.91 0 0 -81.4c0,-20.74 -7.61,-31.07 -22.83,-31.07 -7.23,0 -13.13,3.1 -17.7,9.33 -4.56,6.23 -6.85,13.99 -6.85,23.26l0 79.88 -44.01 0 0 -82.26c0,-20.12 -7.52,-30.21 -22.45,-30.21 -7.52,0 -13.56,2.95 -18.03,8.9 -4.52,5.95 -6.81,14.03 -6.81,24.26l0 79.31 -44.01 0 0 -142.72 44.01 0 0 22.31 0.57 0c4.57,-7.61 10.94,-13.84 19.17,-18.6 8.23,-4.81 17.22,-7.19 26.98,-7.19 20.17,0 33.97,8.85 41.39,26.59 10.9,-17.74 26.83,-26.59 47.96,-26.59 31.01,0 46.53,19.12 46.53,57.42l0 88.78zm306.51 3.47c-23.79,0 -42.48,-6.66 -56.09,-19.98 -13.61,-13.32 -20.41,-31.45 -20.41,-54.29 0,-23.59 7.04,-42.1 21.17,-55.42 14.13,-13.32 33.26,-19.98 57.28,-19.98 23.69,0 42.29,6.66 55.76,19.98 13.46,13.32 20.22,30.97 20.22,52.9 0,23.69 -6.94,42.44 -20.84,56.19 -13.89,13.75 -32.92,20.6 -57.09,20.6zm1.14 -115.94c-10.42,0 -18.51,3.57 -24.26,10.71 -5.76,7.19 -8.66,17.32 -8.66,30.4 0,27.41 11.09,41.11 33.21,41.11 21.07,0 31.64,-14.08 31.64,-42.2 0,-26.69 -10.66,-40.01 -31.93,-40.01zm448.66 112.47l-44.05 0 0 -19.65 -0.52 0c-10.04,15.41 -24.79,23.12 -44.2,23.12 -17.84,0 -32.21,-6.28 -43.06,-18.89 -10.9,-12.56 -16.32,-30.16 -16.32,-52.76 0,-23.59 6,-42.48 17.98,-56.71 11.99,-14.22 27.69,-21.31 47.1,-21.31 18.41,0 31.21,6.57 38.49,19.79l0.52 0 0 -84.87 44.05 0 0 211.28zm-43.2 -69.41l0 -10.75c0,-9.28 -2.71,-16.98 -8.09,-23.12 -5.38,-6.14 -12.42,-9.18 -21.03,-9.18 -9.75,0 -17.41,3.81 -22.88,11.47 -5.47,7.71 -8.23,18.22 -8.23,31.59 0,12.56 2.66,22.22 7.95,28.98 5.33,6.8 12.66,10.18 22.03,10.18 8.95,0 16.22,-3.57 21.84,-10.71 5.61,-7.18 8.42,-16.65 8.42,-28.45zm412.17 10.61l-93.11 0c1.48,20.69 14.56,31.06 39.16,31.06 15.7,0 29.5,-3.71 41.39,-11.13l0 31.78c-13.18,7.04 -30.31,10.56 -51.43,10.56 -23.02,0 -40.91,-6.37 -53.66,-19.17 -12.7,-12.75 -19.08,-30.59 -19.08,-53.42 0,-23.69 6.85,-42.48 20.65,-56.33 13.75,-13.84 30.64,-20.74 50.71,-20.74 20.79,0 36.92,6.19 48.29,18.51 11.37,12.37 17.08,29.17 17.08,50.34l0 18.55zm-40.82 -27.07c0,-20.41 -8.28,-30.64 -24.84,-30.64 -7.04,0 -13.18,2.9 -18.32,8.75 -5.19,5.85 -8.28,13.18 -9.42,21.89l52.57 0zm363.79 -17.13c-5.33,-2.9 -11.51,-4.33 -18.55,-4.33 -9.56,0 -17.03,3.52 -22.46,10.51 -5.37,7.04 -8.09,16.56 -8.09,28.64l0 68.18 -44.01 0 0 -142.72 44.01 0 0 26.5 0.57 0c7,-19.36 19.51,-29.02 37.63,-29.02 4.66,0 8.28,0.57 10.9,1.67l0 40.58zm362.79 103l-43.91 0 0 -79.31c0,-22.12 -7.9,-33.16 -23.69,-33.16 -7.61,0 -13.89,2.9 -18.79,8.76 -4.95,5.85 -7.42,13.32 -7.42,22.31l0 81.4 -44.01 0 0 -142.72 44.01 0 0 22.6 0.57 0c10.51,-17.41 25.79,-26.07 45.86,-26.07 31.59,0 47.38,19.6 47.38,58.8l0 87.4z"/>
 </g>
</svg>
