<svg xmlns="http://www.w3.org/2000/svg" version="1.1" xmlns:xlink="http://www.w3.org/1999/xlink" xmlns:svgjs="http://svgjs.dev/svgjs" width="1000" height="535" viewBox="0 0 1000 535"><g transform="matrix(1,0,0,1,-0.6060606060606233,0.606203628258811)"><svg viewBox="0 0 396 212" data-background-color="#ca3433" preserveAspectRatio="xMidYMid meet" height="535" width="1000" xmlns="http://www.w3.org/2000/svg" xmlns:xlink="http://www.w3.org/1999/xlink"><defs></defs><g id="tight-bounds" transform="matrix(1,0,0,1,0.2400000000000091,-0.24021526951564454)"><svg viewBox="0 0 395.52 212.4804305390313" height="212.4804305390313" width="395.52"><g><svg viewBox="0 0 395.52 212.4804305390313" height="212.4804305390313" width="395.52"><g><svg viewBox="0 0 395.52 212.4804305390313" height="212.4804305390313" width="395.52"><g><svg viewBox="0 0 395.52 212.4804305390313" height="212.4804305390313" width="395.52"><g><svg viewBox="0 0 395.52 141.99520731927274" height="141.99520731927274" width="395.52"><rect width="395.52" height="141.99520731927274" x="0" y="0" opacity="1" fill="#f7e1e1" data-fill-palette-color="tertiary"></rect><g transform="matrix(1,0,0,1,23.461705032,23.46170503200001)"><svg width="348.596589936" viewBox="4.449999809265137 -35.75 131.99000549316406 36" height="95.07179725527273" data-palette-color="#ca3433"><path d="M28.45 0L4.45 0 4.45-35.5 7.95-35.5 7.95-3.1 28.45-3.1 28.45 0ZM46.45 0.25L46.45 0.25Q42.7 0.25 39.65-1.25 36.6-2.75 34.4-5.33 32.2-7.9 31-11.13 29.8-14.35 29.8-17.75L29.8-17.75Q29.8-21.3 31.05-24.53 32.3-27.75 34.57-30.28 36.85-32.8 39.9-34.27 42.95-35.75 46.5-35.75L46.5-35.75Q50.25-35.75 53.3-34.2 56.35-32.65 58.52-30.05 60.7-27.45 61.9-24.25 63.1-21.05 63.1-17.7L63.1-17.7Q63.1-14.15 61.85-10.93 60.6-7.7 58.35-5.18 56.1-2.65 53.05-1.2 50 0.25 46.45 0.25ZM33.3-17.75L33.3-17.75Q33.3-14.85 34.25-12.18 35.2-9.5 36.95-7.43 38.7-5.35 41.12-4.13 43.55-2.9 46.45-2.9L46.45-2.9Q49.5-2.9 51.92-4.17 54.35-5.45 56.07-7.58 57.8-9.7 58.7-12.35 59.6-15 59.6-17.75L59.6-17.75Q59.6-20.65 58.65-23.3 57.7-25.95 55.92-28.05 54.15-30.15 51.75-31.35 49.35-32.55 46.45-32.55L46.45-32.55Q43.45-32.55 41.02-31.3 38.6-30.05 36.87-27.93 35.15-25.8 34.22-23.15 33.3-20.5 33.3-17.75ZM83.95 0.25L83.95 0.25Q80.4 0.25 77.34-1.28 74.3-2.8 72.05-5.4 69.8-8 68.57-11.2 67.34-14.4 67.34-17.8L67.34-17.8Q67.34-21.4 68.57-24.63 69.8-27.85 72-30.35 74.2-32.85 77.2-34.3 80.2-35.75 83.75-35.75L83.75-35.75Q89-35.75 92.3-33.6 95.59-31.45 97.3-28L97.3-28 94.59-26.2Q92.9-29.5 90.05-31.05 87.2-32.6 83.7-32.6L83.7-32.6Q80.75-32.6 78.37-31.35 76-30.1 74.3-28 72.59-25.9 71.72-23.25 70.84-20.6 70.84-17.75L70.84-17.75Q70.84-14.75 71.84-12.08 72.84-9.4 74.7-7.33 76.55-5.25 78.97-4.08 81.4-2.9 84.2-2.9L84.2-2.9Q87.45-2.9 90.34-4.53 93.25-6.15 95.9-9.55L95.9-9.55 95.9-5.85Q90.84 0.25 83.95 0.25ZM95.34 0L95.34-14.75 87.45-14.75 87.45-17.45 98.3-17.45 98.3 0 95.34 0ZM119.79 0.25L119.79 0.25Q116.04 0.25 112.99-1.25 109.94-2.75 107.74-5.33 105.54-7.9 104.34-11.13 103.14-14.35 103.14-17.75L103.14-17.75Q103.14-21.3 104.39-24.53 105.64-27.75 107.92-30.28 110.19-32.8 113.24-34.27 116.29-35.75 119.84-35.75L119.84-35.75Q123.59-35.75 126.64-34.2 129.69-32.65 131.87-30.05 134.04-27.45 135.24-24.25 136.44-21.05 136.44-17.7L136.44-17.7Q136.44-14.15 135.19-10.93 133.94-7.7 131.69-5.18 129.44-2.65 126.39-1.2 123.34 0.25 119.79 0.25ZM106.64-17.75L106.64-17.75Q106.64-14.85 107.59-12.18 108.54-9.5 110.29-7.43 112.04-5.35 114.47-4.13 116.89-2.9 119.79-2.9L119.79-2.9Q122.84-2.9 125.27-4.17 127.69-5.45 129.42-7.58 131.14-9.7 132.04-12.35 132.94-15 132.94-17.75L132.94-17.75Q132.94-20.65 131.99-23.3 131.04-25.95 129.27-28.05 127.49-30.15 125.09-31.35 122.69-32.55 119.79-32.55L119.79-32.55Q116.79-32.55 114.37-31.3 111.94-30.05 110.22-27.93 108.49-25.8 107.57-23.15 106.64-20.5 106.64-17.75Z" opacity="1" transform="matrix(1,0,0,1,0,0)" fill="#ca3433" class="undefined-text-0" data-fill-palette-color="quaternary" id="text-0"></path></svg></g></svg></g><g transform="matrix(1,0,0,1,0,153.72605983527274)"><svg viewBox="0 0 395.52 58.754370703758546" height="58.754370703758546" width="395.52"><g transform="matrix(1,0,0,1,0,0)"><svg width="395.52" viewBox="2 -25 252.44000244140625 37.5" height="58.754370703758546" data-palette-color="#ff908b"><path d="M12.45 0L5.65 0Q4.1 0 3.05-1.07 2-2.15 2-3.65L2-3.65 2-21.35Q2-22.85 3.05-23.93 4.1-25 5.65-25L5.65-25 12.45-25Q13.95-25 15.03-23.93 16.1-22.85 16.1-21.35L16.1-21.35 16.1-15.9 11.4-15.9 11.4-18.5Q11.4-19.25 10.85-19.78 10.3-20.3 9.55-20.3L9.55-20.3 8.5-20.3Q7.75-20.3 7.23-19.78 6.7-19.25 6.7-18.5L6.7-18.5 6.7-6.5Q6.7-5.75 7.23-5.23 7.75-4.7 8.5-4.7L8.5-4.7 9.55-4.7Q10.3-4.7 10.85-5.23 11.4-5.75 11.4-6.5L11.4-6.5 11.4-9.1 16.1-9.1 16.1-3.65Q16.1-2.15 15.03-1.07 13.95 0 12.45 0L12.45 0ZM50.29 0L43.49 0Q41.94 0 40.89-1.07 39.84-2.15 39.84-3.65L39.84-3.65 39.84-21.35Q39.84-22.85 40.89-23.93 41.94-25 43.49-25L43.49-25 50.29-25Q51.79-25 52.84-23.93 53.89-22.85 53.89-21.35L53.89-21.35 53.89-3.65Q53.89-2.15 52.84-1.07 51.79 0 50.29 0L50.29 0ZM46.34-4.7L46.34-4.7 47.39-4.7Q48.14-4.7 48.69-5.23 49.24-5.75 49.24-6.5L49.24-6.5 49.24-18.5Q49.24-19.25 48.69-19.78 48.14-20.3 47.39-20.3L47.39-20.3 46.34-20.3Q45.59-20.3 45.07-19.78 44.54-19.25 44.54-18.5L44.54-18.5 44.54-6.5Q44.54-5.75 45.07-5.23 45.59-4.7 46.34-4.7ZM83.33 0L78.63 0 78.63-25 98.48-25Q99.98-25 101.03-23.93 102.08-22.85 102.08-21.35L102.08-21.35 102.08 0 97.43 0 97.43-18.5Q97.43-19.25 96.88-19.78 96.33-20.3 95.58-20.3L95.58-20.3 92.73-20.3 92.73 0 88.03 0 88.03-18.5Q88.03-19.25 87.48-19.78 86.93-20.3 86.18-20.3L86.18-20.3 83.33-20.3 83.33 0ZM131.32 12.5L126.62 12.5 126.62-25 137.07-25Q138.62-25 139.67-23.95 140.72-22.9 140.72-21.35L140.72-21.35 140.72-3.65Q140.72-2.1 139.67-1.05 138.62 0 137.07 0L137.07 0 131.32 0 131.32 12.5ZM131.32-20.3L131.32-4.7 134.22-4.7Q134.92-4.7 135.47-5.25 136.02-5.8 136.02-6.5L136.02-6.5 136.02-18.45Q136.02-19.3 135.47-19.8 134.92-20.3 134.22-20.3L134.22-20.3 131.32-20.3ZM178.66 0L168.21 0Q166.71 0 165.64-1.05 164.56-2.1 164.56-3.65L164.56-3.65 164.56-11.2Q164.56-12.7 165.64-13.78 166.71-14.85 168.21-14.85L168.21-14.85 172.11-14.85Q172.91-14.85 173.44-15.38 173.96-15.9 173.96-16.65L173.96-16.65 173.96-18.5Q173.96-19.25 173.44-19.78 172.91-20.3 172.11-20.3L172.11-20.3 166.71-20.3 167.76-25 175.01-25Q176.51-25 177.59-23.93 178.66-22.85 178.66-21.35L178.66-21.35 178.66 0ZM171.06-4.7L171.06-4.7 173.96-4.7 173.96-10.15 171.06-10.15Q170.31-10.15 169.79-9.63 169.26-9.1 169.26-8.35L169.26-8.35 169.26-6.5Q169.26-5.75 169.79-5.23 170.31-4.7 171.06-4.7ZM206.9 0L202.2 0 202.2-25 212.65-25Q214.1-25 215.2-23.95 216.3-22.9 216.3-21.4L216.3-21.4 216.3 0 211.6 0 211.6-18.5Q211.6-19.3 211.05-19.8 210.5-20.3 209.8-20.3L209.8-20.3 206.9-20.3 206.9 0ZM250.84 12.5L243.99 12.5Q242.44 12.5 241.39 11.45 240.34 10.4 240.34 8.85L240.34 8.85 240.34 3.4 245.04 4.5 245.04 6Q245.04 6.7 245.59 7.25 246.14 7.8 246.84 7.8L246.84 7.8 247.94 7.8Q248.64 7.8 249.19 7.25 249.74 6.7 249.74 6L249.74 6 249.74 0 243.99 0Q242.44 0 241.39-1.05 240.34-2.1 240.34-3.65L240.34-3.65 240.34-25 245.04-25 245.04-6.5Q245.04-5.8 245.59-5.25 246.14-4.7 246.84-4.7L246.84-4.7 249.74-4.7 249.74-25 254.44-25 254.44 8.85Q254.44 10.4 253.39 11.45 252.34 12.5 250.84 12.5L250.84 12.5Z" opacity="1" transform="matrix(1,0,0,1,0,0)" fill="#ff908b" class="undefined-text-1" data-fill-palette-color="secondary" id="text-1"></path></svg></g></svg></g></svg></g></svg></g></svg></g></svg><rect width="395.52" height="212.4804305390313" fill="none" stroke="none" visibility="hidden"></rect></g></svg></g></svg>