<?xml version="1.0" encoding="UTF-8"?>
<!DOCTYPE svg PUBLIC "-//W3C//DTD SVG 1.1//EN" "http://www.w3.org/Graphics/SVG/1.1/DTD/svg11.dtd">
<!-- Creator: CorelDRAW -->
<svg xmlns="http://www.w3.org/2000/svg" xml:space="preserve" width="76.6551mm" height="16.1014mm" version="1.1" style="shape-rendering:geometricPrecision; text-rendering:geometricPrecision; image-rendering:optimizeQuality; fill-rule:evenodd; clip-rule:evenodd"
viewBox="0 0 1195.18 251.05"
 xmlns:xlink="http://www.w3.org/1999/xlink"
 xmlns:xodm="http://www.corel.com/coreldraw/odm/2003">
 <defs>
  <style type="text/css">
   <![CDATA[
    .str0 {stroke:black;stroke-width:3.12;stroke-miterlimit:22.9256}
    .fil0 {fill:none;fill-rule:nonzero}
    .fil1 {fill:black;fill-rule:nonzero}
    .fil2 {fill:black;fill-rule:nonzero}
   ]]>
  </style>
 </defs>
 <g id="Слой_x0020_1">
  <metadata id="CorelCorpID_0Corel-Layer"/>
  <g id="_2057600661008">
   <path class="fil0 str0" d="M23.68 64.73l167.71 145.64 -167.71 0 0 -145.64zm83.86 72.82m0 72.82m-83.86 -72.82"/>
   <path class="fil0 str0" d="M235.1 74l-210.41 171.99 89 -220.91 121.42 48.91zm-105.21 86m-60.71 -24.46m105.21 -86"/>
   <path class="fil0 str0" d="M193.6 185.28l-185.82 -179.92 221.52 103.59 -35.7 76.33zm-92.91 -89.96m17.85 -38.17m92.91 89.96"/>
  </g>
  <path class="fil1" d="M411.7 194.93c-9.5,4.97 -19.27,7.45 -29.32,7.45 -12.53,0 -22.66,-3.95 -30.42,-11.87 -7.73,-7.9 -11.6,-18.28 -11.6,-31.12 0,-12.97 4.16,-23.78 12.5,-32.43 8.34,-8.67 19.49,-13.01 33.44,-13.01 8.08,0 15.92,1.51 23.54,4.54l0 6.43c-8.34,-3.72 -16.49,-5.6 -24.44,-5.6 -11.58,0 -20.89,3.68 -27.92,11.03 -7.03,7.37 -10.56,16.75 -10.56,28.17 0,12.01 3.31,21.41 9.92,28.23 6.61,6.82 15.53,10.24 26.74,10.24 8.3,0 15.57,-1.67 21.81,-5.01l0 -28.21 -21.68 0 0 -5.37 27.99 0 0 36.52zm74.74 5.98l0 -85.49 42.94 0 0 5.37 -36.63 0 0 34.32 34.03 0 0 5.37 -34.03 0 0 35.05 38.76 0 0 5.37 -45.06 0zm156.97 1.47c-13.01,0 -23.36,-4.01 -31.09,-12.05 -7.73,-8.02 -11.58,-18.46 -11.58,-31.31 0,-13.62 3.96,-24.55 11.91,-32.75 7.93,-8.2 18.77,-12.31 32.5,-12.31 12.42,0 22.45,3.95 30.13,11.83 7.69,7.9 11.52,18.24 11.52,31.04 0,14.15 -3.94,25.28 -11.8,33.38 -7.88,8.12 -18.39,12.17 -31.58,12.17zm0.64 -83.05c-10.69,0 -19.49,3.6 -26.39,10.79 -6.9,7.2 -10.36,16.63 -10.36,28.29 0,11.77 3.26,21.15 9.81,28.13 6.55,6.98 15.26,10.46 26.17,10.46 11.36,0 20.37,-3.46 27,-10.36 6.64,-6.9 9.94,-16.51 9.94,-28.84 0,-12.09 -3.24,-21.52 -9.72,-28.29 -6.48,-6.78 -15.28,-10.18 -26.45,-10.18zm115.01 81.58l0 -85.49 23.01 0c15.26,0 26.87,3.54 34.82,10.6 7.95,7.08 11.93,17.4 11.93,30.94 0,13.05 -4.27,23.63 -12.79,31.75 -8.54,8.12 -20.3,12.19 -35.3,12.19l-21.68 0zm6.31 -80.12l0 74.74 14.45 0c13.64,0 24.13,-3.3 31.47,-9.87 7.31,-6.58 10.97,-16.08 10.97,-28.48 0,-24.26 -13.73,-36.4 -41.17,-36.4l-15.72 0zm135.68 80.12l0 -85.49 42.94 0 0 5.37 -36.63 0 0 34.32 34.03 0 0 5.37 -34.03 0 0 35.05 38.76 0 0 5.37 -45.06 0zm116.26 -3.05l0 -6.7c6.57,3.89 13.25,5.84 19.99,5.84 7.18,0 12.64,-1.38 16.34,-4.15 3.72,-2.77 5.58,-6.66 5.58,-11.64 0,-4.38 -1.25,-7.86 -3.74,-10.46 -2.5,-2.61 -7.9,-6.15 -16.25,-10.65 -9.31,-5.05 -15.2,-9.26 -17.67,-12.66 -2.47,-3.4 -3.72,-7.33 -3.72,-11.79 0,-6.05 2.52,-11.18 7.55,-15.39 5.04,-4.21 11.78,-6.31 20.19,-6.31 5.47,0 10.93,0.85 16.4,2.56l0 6.21c-5.39,-2.26 -11.15,-3.4 -17.26,-3.4 -6.24,0 -11.19,1.47 -14.85,4.42 -3.66,2.93 -5.47,6.68 -5.47,11.2 0,4.38 1.25,7.86 3.74,10.44 2.52,2.59 7.9,6.09 16.2,10.54 8.61,4.54 14.32,8.55 17.17,12.07 2.85,3.52 4.27,7.57 4.27,12.13 0,6.57 -2.45,11.91 -7.34,16.04 -4.91,4.13 -11.82,6.21 -20.76,6.21 -3.15,0 -6.81,-0.45 -10.93,-1.36 -4.11,-0.92 -7.27,-1.95 -9.46,-3.15zm148.19 -29.43l0 32.49 -6.31 0 0 -32.37 -28.12 -53.13 7.12 0 21.39 41.2c0.77,1.42 1.73,3.54 2.89,6.31l0.26 0c0.59,-1.47 1.64,-3.54 3.13,-6.19l22.47 -41.32 6.85 0 -29.69 53.01z"/>
  <path class="fil2" d="M385.09 75.13l-8.26 0 0 -15.32c0,-3.9 -1.43,-5.85 -4.3,-5.85 -1.36,0 -2.47,0.58 -3.33,1.75 -0.86,1.17 -1.29,2.63 -1.29,4.38l0 15.03 -8.28 0 0 -15.48c0,-3.79 -1.41,-5.68 -4.23,-5.68 -1.41,0 -2.55,0.56 -3.39,1.67 -0.85,1.12 -1.28,2.64 -1.28,4.57l0 14.93 -8.28 0 0 -26.86 8.28 0 0 4.2 0.11 0c0.86,-1.43 2.06,-2.61 3.61,-3.5 1.55,-0.9 3.24,-1.35 5.08,-1.35 3.8,0 6.39,1.67 7.79,5 2.05,-3.34 5.05,-5 9.03,-5 5.84,0 8.76,3.6 8.76,10.81l0 16.71zm57.69 0.65c-4.48,0 -8,-1.25 -10.56,-3.76 -2.56,-2.51 -3.84,-5.92 -3.84,-10.22 0,-4.44 1.33,-7.92 3.98,-10.43 2.66,-2.51 6.26,-3.76 10.78,-3.76 4.46,0 7.96,1.25 10.49,3.76 2.53,2.51 3.81,5.83 3.81,9.96 0,4.46 -1.31,7.99 -3.92,10.57 -2.61,2.59 -6.2,3.88 -10.74,3.88zm0.21 -21.82c-1.96,0 -3.48,0.67 -4.57,2.01 -1.08,1.35 -1.63,3.26 -1.63,5.72 0,5.16 2.09,7.74 6.25,7.74 3.97,0 5.95,-2.65 5.95,-7.94 0,-5.02 -2.01,-7.53 -6.01,-7.53zm84.44 21.17l-8.29 0 0 -3.7 -0.1 0c-1.89,2.9 -4.67,4.35 -8.32,4.35 -3.36,0 -6.06,-1.18 -8.1,-3.55 -2.05,-2.36 -3.07,-5.68 -3.07,-9.93 0,-4.44 1.13,-8 3.38,-10.67 2.26,-2.68 5.21,-4.01 8.86,-4.01 3.47,0 5.87,1.24 7.24,3.72l0.1 0 0 -15.97 8.29 0 0 39.76zm-8.13 -13.06l0 -2.02c0,-1.75 -0.51,-3.2 -1.52,-4.35 -1.01,-1.16 -2.34,-1.73 -3.96,-1.73 -1.84,0 -3.28,0.72 -4.31,2.16 -1.03,1.45 -1.55,3.43 -1.55,5.95 0,2.36 0.5,4.18 1.5,5.45 1,1.28 2.38,1.92 4.14,1.92 1.68,0 3.05,-0.67 4.11,-2.01 1.06,-1.35 1.59,-3.13 1.59,-5.35zm77.57 2l-17.52 0c0.28,3.89 2.74,5.85 7.37,5.85 2.95,0 5.55,-0.7 7.79,-2.1l0 5.98c-2.48,1.33 -5.7,1.99 -9.68,1.99 -4.33,0 -7.7,-1.2 -10.1,-3.61 -2.39,-2.4 -3.59,-5.76 -3.59,-10.06 0,-4.46 1.29,-8 3.89,-10.6 2.59,-2.61 5.77,-3.9 9.54,-3.9 3.91,0 6.95,1.16 9.09,3.48 2.14,2.33 3.22,5.49 3.22,9.47l0 3.49zm-7.68 -5.09c0,-3.84 -1.56,-5.77 -4.67,-5.77 -1.33,0 -2.48,0.55 -3.45,1.65 -0.98,1.1 -1.56,2.48 -1.77,4.12l9.89 0zm68.47 -3.22c-1,-0.55 -2.17,-0.81 -3.49,-0.81 -1.8,0 -3.21,0.66 -4.23,1.98 -1.01,1.33 -1.52,3.12 -1.52,5.39l0 12.83 -8.28 0 0 -26.86 8.28 0 0 4.99 0.11 0c1.32,-3.64 3.67,-5.46 7.08,-5.46 0.88,0 1.56,0.11 2.05,0.31l0 7.64zm68.28 19.39l-8.27 0 0 -14.93c0,-4.16 -1.49,-6.24 -4.46,-6.24 -1.43,0 -2.61,0.55 -3.54,1.65 -0.93,1.1 -1.4,2.51 -1.4,4.2l0 15.32 -8.28 0 0 -26.86 8.28 0 0 4.25 0.11 0c1.98,-3.28 4.85,-4.91 8.63,-4.91 5.95,0 8.92,3.69 8.92,11.07l0 16.45z"/>
 </g>
</svg>
