<?xml version="1.0" encoding="UTF-8"?>
<!DOCTYPE svg PUBLIC "-//W3C//DTD SVG 1.1//EN" "http://www.w3.org/Graphics/SVG/1.1/DTD/svg11.dtd">
<!-- Creator: CorelDRAW -->
<svg xmlns="http://www.w3.org/2000/svg" xml:space="preserve" width="148.33mm" height="41.2819mm" version="1.1" style="shape-rendering:geometricPrecision; text-rendering:geometricPrecision; image-rendering:optimizeQuality; fill-rule:evenodd; clip-rule:evenodd"
viewBox="0 0 5366.34 1493.51"
 xmlns:xlink="http://www.w3.org/1999/xlink"
 xmlns:xodm="http://www.corel.com/coreldraw/odm/2003">
 <defs>
  <style type="text/css">
   <![CDATA[
    .str0 {stroke:white;stroke-width:7.24;stroke-miterlimit:22.9256}
    .fil1 {fill:none;fill-rule:nonzero}
    .fil0 {fill:white;fill-rule:nonzero}
   ]]>
  </style>
 </defs>
 <g id="Слой_x0020_1">
  <metadata id="CorelCorpID_0Corel-Layer"/>
  <path class="fil0" d="M2197.73 1059.05c-36.71,19.29 -77.6,28.94 -122.59,28.94 -52.23,0 -94.51,-15.64 -126.78,-47.01 -32.35,-31.29 -48.48,-72.78 -48.48,-124.41 0,-52.68 17.96,-95.97 53.8,-129.76 35.84,-33.8 81.26,-50.74 136.28,-50.74 39.84,0 73.33,6.08 100.36,18.07l0 44.17c-29.56,-17.43 -64.69,-26.1 -105.24,-26.1 -40.98,0 -74.63,13.13 -100.88,39.39 -26.24,26.26 -39.32,60.31 -39.32,102.13 0,43.04 12.21,76.92 36.53,101.48 24.33,24.64 57.37,36.96 99.14,36.96 28.6,0 53.36,-5.35 74.29,-15.89l0 -95.48 -80.21 0 0 -36.07 123.11 0 0 154.32zm492.05 23.26l-194.09 0 0 -340.5 185.98 0 0 36.07 -143.08 0 0 113.31 132.35 0 0 35.82 -132.35 0 0 119.23 151.19 0 0 36.07zm431.01 5.67c-51.97,0 -93.56,-15.89 -124.77,-47.74 -31.21,-31.78 -46.91,-73.19 -46.91,-124.17 0,-54.79 15.96,-98.48 47.78,-131.06 31.82,-32.58 75.25,-48.96 130.09,-48.96 50.57,0 91.29,15.89 122.16,47.5 30.95,31.69 46.38,73.11 46.38,124.25 0,55.52 -15.86,99.45 -47.52,131.79 -31.65,32.26 -74.02,48.39 -127.21,48.39zm3.05 -315.78c-38.45,0 -69.67,12.89 -93.73,38.66 -23.98,25.85 -36.01,59.73 -36.01,101.64 0,41.98 11.68,75.7 35.14,101.31 23.36,25.53 53.97,38.34 91.55,38.34 40.19,0 71.85,-12.16 95.04,-36.55 23.2,-24.4 34.71,-58.52 34.71,-102.37 0,-44.98 -11.16,-79.67 -33.66,-104.23 -22.5,-24.56 -53.54,-36.8 -93.03,-36.8zm456.56 310.11l0 -340.5 101.14 0c129.05,0 193.66,55.28 193.66,165.99 0,52.52 -17.97,94.75 -53.8,126.69 -35.83,31.86 -83.79,47.82 -143.95,47.82l-97.04 0zm42.9 -304.43l0 268.36 54.67 0c48.04,0 85.36,-11.99 112.13,-35.9 26.77,-23.91 40.11,-57.79 40.11,-101.64 0,-87.21 -49.87,-130.82 -149.71,-130.82l-57.2 0zm730.87 304.43l-194.09 0 0 -340.5 185.98 0 0 36.07 -143.08 0 0 113.31 132.35 0 0 35.82 -132.35 0 0 119.23 151.19 0 0 36.07zm266.22 -13.78l0 -47.01c5.84,4.78 12.82,9 20.84,12.81 8.11,3.81 16.65,7.05 25.55,9.65 8.98,2.59 17.96,4.62 26.94,6.08 9.07,1.38 17.44,2.11 25.02,2.11 26.42,0 46.12,-4.54 59.21,-13.7 12.99,-9.08 19.53,-22.21 19.53,-39.23 0,-9.24 -2.18,-17.18 -6.54,-23.99 -4.36,-6.81 -10.37,-13.05 -17.96,-18.64 -7.67,-5.67 -16.74,-11.02 -27.21,-16.21 -10.55,-5.1 -21.8,-10.54 -33.92,-16.21 -12.73,-6 -24.67,-12.16 -35.74,-18.32 -11.08,-6.16 -20.67,-12.97 -28.86,-20.43 -8.2,-7.46 -14.56,-15.89 -19.27,-25.29 -4.71,-9.4 -7.07,-20.43 -7.07,-33.07 0,-15.56 3.66,-29.02 10.99,-40.52 7.33,-11.51 17,-20.91 28.86,-28.37 11.94,-7.46 25.55,-12.97 40.8,-16.61 15.17,-3.65 30.78,-5.51 46.56,-5.51 36.1,0 62.43,4.05 79,12.16l0 44.9c-21.63,-13.94 -49.44,-20.91 -83.27,-20.91 -9.41,0 -18.75,0.89 -28.16,2.68 -9.33,1.86 -17.7,4.86 -25.02,8.91 -7.33,4.13 -13.25,9.48 -17.88,15.97 -4.62,6.49 -6.89,14.35 -6.89,23.75 0,8.67 1.75,16.21 5.24,22.53 3.49,6.32 8.63,12.08 15.43,17.34 6.81,5.19 15.17,10.29 24.93,15.16 9.77,4.94 21.1,10.29 33.83,16.13 13.17,6.08 25.55,12.4 37.32,19.05 11.77,6.65 22.06,14.02 30.87,22.04 8.89,8.11 15.87,17.02 21.1,26.83 5.23,9.81 7.76,21.07 7.76,33.72 0,16.78 -3.49,31.04 -10.55,42.63 -7.06,11.67 -16.65,21.15 -28.6,28.37 -12.03,7.3 -25.9,12.56 -41.5,15.81 -15.69,3.24 -32.17,4.86 -49.61,4.86 -5.75,0 -12.9,-0.41 -21.45,-1.3 -8.46,-0.89 -17.17,-2.11 -26.07,-3.81 -8.81,-1.62 -17.18,-3.73 -25.11,-6.16 -7.94,-2.43 -14.3,-5.19 -19.09,-8.19zm745.95 -326.72l-120.76 214.62 0 125.88 -42.98 0 0 -124.9 -117.71 -215.6 48.74 0 82.05 153.84c0.96,1.94 4.01,8.91 8.89,20.91l0.78 0c1.74,-5.35 4.97,-12.32 9.68,-20.91l85.88 -153.84 45.43 0z"/>
  <g id="_2180819922944">
   <path class="fil1 str0" d="M115.19 374.95l1024.06 889.32 -1024.06 0 0 -889.32zm512.03 444.66m0 444.66m-512.03 -444.66"/>
   <path class="fil1 str0" d="M1406.1 431.57l-1284.79 1050.22 543.42 -1348.89 741.37 298.67zm-642.4 525.11m-370.69 -149.34m642.4 -525.11"/>
   <path class="fil1 str0" d="M1152.69 1111.07l-1134.65 -1098.64 1352.62 632.53 -217.97 466.11zm-567.33 -549.32m108.98 -233.05m567.33 549.32"/>
  </g>
  <path class="fil0" d="M3658.93 497.65l-20.9 0 0 -75.03c0,-14.46 -2.26,-24.91 -6.71,-31.35 -4.49,-6.49 -11.98,-9.71 -22.51,-9.71 -8.93,0 -16.55,4.09 -22.77,12.24 -6.27,8.19 -9.41,17.94 -9.41,29.35l0 74.51 -20.9 0 0 -77.56c0,-25.69 -9.93,-38.54 -29.74,-38.54 -9.19,0 -16.72,3.83 -22.69,11.54 -5.97,7.71 -8.93,17.72 -8.93,30.05l0 74.51 -20.94 0 0 -130.64 20.94 0 0 20.69 0.52 0c9.23,-15.85 22.77,-23.73 40.54,-23.73 8.93,0 16.72,2.48 23.34,7.45 6.66,4.96 11.19,11.5 13.68,19.6 9.67,-18.03 24.12,-27.04 43.37,-27.04 28.74,0 43.11,17.72 43.11,53.17l0 80.51zm279.32 3.05c-19.29,0 -34.71,-6.1 -46.25,-18.29 -11.5,-12.19 -17.29,-28.39 -17.29,-48.55 0,-21.95 6.01,-39.06 17.98,-51.43 12.02,-12.32 28.22,-18.46 48.64,-18.46 19.46,0 34.66,5.97 45.59,17.98 10.93,11.98 16.37,28.61 16.37,49.86 0,20.86 -5.88,37.54 -17.64,50.08 -11.8,12.54 -27.61,18.81 -47.42,18.81zm1.52 -119.14c-13.41,0 -24.04,4.57 -31.88,13.72 -7.84,9.15 -11.76,21.73 -11.76,37.84 0,15.46 3.97,27.65 11.89,36.58 7.93,8.93 18.51,13.41 31.75,13.41 13.54,0 23.95,-4.4 31.22,-13.15 7.27,-8.76 10.89,-21.21 10.89,-37.37 0,-16.33 -3.61,-28.91 -10.89,-37.75 -7.27,-8.89 -17.68,-13.28 -31.22,-13.28zm393.67 116.09l-20.94 0 0 -22.21 -0.48 0c-9.71,16.86 -24.69,25.26 -44.94,25.26 -16.37,0 -29.53,-5.84 -39.32,-17.55 -9.84,-11.67 -14.76,-27.61 -14.76,-47.77 0,-21.6 5.44,-38.89 16.33,-51.91 10.89,-13.02 25.39,-19.51 43.5,-19.51 17.94,0 31,7.05 39.19,21.16l0.48 0 0 -80.87 20.94 0 0 193.39zm-20.94 -59.05l0 -19.29c0,-10.54 -3.48,-19.46 -10.45,-26.78 -6.97,-7.32 -15.81,-10.97 -26.52,-10.97 -12.76,0 -22.82,4.66 -30.14,14.02 -7.32,9.36 -10.97,22.3 -10.97,38.8 0,15.07 3.53,26.91 10.54,35.66 7.01,8.71 16.46,13.06 28.26,13.06 11.67,0 21.12,-4.23 28.39,-12.63 7.27,-8.4 10.89,-19.07 10.89,-31.87zm353.43 -1.05l-92.23 0c0.35,14.54 4.27,25.78 11.76,33.7 7.49,7.88 17.77,11.84 30.87,11.84 14.72,0 28.22,-4.83 40.58,-14.54l0 19.64c-11.49,8.36 -26.69,12.5 -45.55,12.5 -18.46,0 -32.97,-5.92 -43.5,-17.77 -10.58,-11.89 -15.85,-28.57 -15.85,-50.08 0,-20.34 5.79,-36.88 17.29,-49.69 11.54,-12.8 25.86,-19.2 42.94,-19.2 17.11,0 30.31,5.53 39.67,16.59 9.36,11.02 14.02,26.39 14.02,46.03l0 10.98zm-21.42 -17.72c-0.09,-12.06 -3.01,-21.47 -8.71,-28.22 -5.75,-6.7 -13.72,-10.06 -23.95,-10.06 -9.84,0 -18.24,3.53 -25.13,10.58 -6.88,7.05 -11.15,16.28 -12.76,27.69l70.54 0zm306.41 -31.66c-3.66,-2.79 -8.93,-4.18 -15.81,-4.18 -8.97,0 -16.42,4.18 -22.43,12.63 -5.97,8.4 -8.97,19.9 -8.97,34.45l0 66.58 -20.94 0 0 -130.64 20.94 0 0 26.91 0.52 0c2.96,-9.19 7.49,-16.33 13.63,-21.51 6.14,-5.14 12.98,-7.71 20.55,-7.71 5.44,0 9.58,0.61 12.5,1.78l0 21.69zm316.33 109.48l-20.95 0 0 -74.51c0,-27.74 -10.1,-41.59 -30.35,-41.59 -10.45,0 -19.12,3.92 -25.95,11.8 -6.88,7.88 -10.28,17.81 -10.28,29.79l0 74.51 -20.94 0 0 -130.64 20.94 0 0 21.69 0.52 0c9.84,-16.5 24.12,-24.74 42.85,-24.74 14.28,0 25.21,4.62 32.79,13.85 7.58,9.19 11.37,22.55 11.37,39.97l0 79.86z"/>
 </g>
</svg>
